<svg xmlns="http://www.w3.org/2000/svg" xmlns:xlink="http://www.w3.org/1999/xlink" version="1.1" x="0px" y="0px" viewBox="0 0 64 80" style="fill: white;" xml:space="preserve"><g><path d="M14.293,41.465c-0.713,0.713-1.873,0.713-2.586,0l-1.414,1.414c0.746,0.746,1.727,1.119,2.707,1.119   s1.961-0.373,2.707-1.119L14.293,41.465z"/><path d="M22.293,41.465c-0.713,0.713-1.873,0.713-2.586,0l-1.414,1.414c0.746,0.746,1.727,1.119,2.707,1.119   s1.961-0.373,2.707-1.119L22.293,41.465z"/><path d="M18.707,47.879l-1.414-1.414c-0.713,0.713-1.873,0.713-2.586,0l-1.414,1.414c0.746,0.746,1.727,1.119,2.707,1.119   S17.961,48.625,18.707,47.879z"/><path d="M26.707,47.879l-1.414-1.414c-0.713,0.713-1.873,0.713-2.586,0l-1.414,1.414c0.746,0.746,1.727,1.119,2.707,1.119   S25.961,48.625,26.707,47.879z"/><path d="M16.707,52.293l-1.414,1.414c0.746,0.746,1.727,1.119,2.707,1.119s1.961-0.373,2.707-1.119l-1.414-1.414   C18.58,53.006,17.42,53.006,16.707,52.293z"/><path d="M27.293,52.293c-0.713,0.713-1.873,0.713-2.586,0l-1.414,1.414c0.746,0.746,1.727,1.119,2.707,1.119   s1.961-0.373,2.707-1.119L27.293,52.293z"/><path d="M32.707,52.465l-1.414,1.414c0.746,0.746,1.727,1.119,2.707,1.119s1.961-0.373,2.707-1.119l-1.414-1.414   C34.58,53.178,33.42,53.178,32.707,52.465z"/><path d="M40.707,49.465l-1.414,1.414c0.746,0.746,1.727,1.119,2.707,1.119s1.961-0.373,2.707-1.119l-1.414-1.414   C42.58,50.178,41.42,50.178,40.707,49.465z"/><path d="M28.707,57.293l-1.414,1.414c0.746,0.746,1.727,1.119,2.707,1.119s1.961-0.373,2.707-1.119l-1.414-1.414   C30.58,58.006,29.42,58.006,28.707,57.293z"/><path d="M63,27c0-2.273-0.606-4.521-1.753-6.501l-0.865-1.494l-0.865,1.494C57.55,23.892,53.904,26,50,26s-7.55-2.108-9.516-5.501   l-0.865-1.494l-0.865,1.494C37.606,22.479,37,24.727,37,27c0,5.955,4.03,10.976,9.503,12.508l-1.009,1.614   C43.586,44.177,40.296,46,36.695,46h-0.163c-1.997,0-3.891-0.551-5.532-1.531V39h-0.031C32.194,38.088,33,36.641,33,35v-3   c0-2.137-0.752-4.099-2-5.644V15c0-7.72-6.28-14-14-14S3,7.28,3,15v11.356C1.752,27.901,1,29.863,1,32v3   c0,1.627,0.793,3.061,2,3.974V48c0,1.103-0.897,2-2,2v2h7.114C10.547,58.417,16.74,63,24,63h4.995   c6.061,0,11.845-2.271,16.284-6.395l0.074-0.068c4.703-4.367,7.457-10.494,7.631-16.896C58.716,38.287,63,33.14,63,27z M39,27   c0-1.37,0.261-2.73,0.763-4.006c1.156,1.477,2.617,2.664,4.252,3.518c0.085,5.76,1.528,9.131,2.938,11.049   C42.367,36.236,39,32.007,39,27z M29,42.931c-0.599-0.588-1.141-1.244-1.599-1.977L26.805,40H28c0.342,0,0.677-0.035,1-0.101   V42.931z M17,3c6.617,0,12,5.383,12,12v9.522c-1.185-0.795-2.567-1.316-4.057-1.471C26.228,21.368,27,19.275,27,17v-5h-2v1.746   c-0.421-0.212-0.779-0.54-1-0.982L22.618,10h-2.032l-2.536,2.535C17.106,13.479,15.851,14,14.515,14H9v-2H7v5   c0,2.275,0.772,4.368,2.057,6.05C7.567,23.206,6.185,23.727,5,24.522V15C5,8.383,10.383,3,17,3z M9,17v-1h5.515   c1.871,0,3.628-0.729,4.95-2.051l1.928-1.928l0.818,1.637c0.569,1.137,1.592,1.927,2.789,2.215V17c0,4.411-3.589,8-8,8   S9,21.411,9,17z M3,32c0-3.859,3.14-7,7-7h1v-0.019C12.674,26.242,14.747,27,17,27s4.326-0.758,6-2.019V25h1c3.86,0,7,3.141,7,7v3   c0,1.654-1.346,3-3,3h-8.5c-0.827,0-1.5-0.673-1.5-1.5s0.673-1.5,1.5-1.5H27v-2.758C27,29.352,24.648,27,21.757,27   c-1.399,0-2.716,0.545-3.707,1.535L17,29.586l-1.051-1.052C14.958,27.545,13.642,27,12.243,27C9.352,27,7,29.352,7,32.242V35h7.5   c0.827,0,1.5,0.673,1.5,1.5S15.327,38,14.5,38H6c-1.654,0-3-1.346-3-3V32z M17,34.053C16.364,33.403,15.479,33,14.5,33H9v-0.758   C9,30.454,10.455,29,12.243,29c0.866,0,1.68,0.337,2.293,0.949L17,32.414l2.464-2.464c0.613-0.613,1.428-0.95,2.293-0.95   C23.545,29,25,30.454,25,32.242V33h-5.5C18.521,33,17.636,33.403,17,34.053z M4.463,50C4.805,49.411,5,48.728,5,48v-8.101   C5.323,39.965,5.658,40,6,40h1v6c0,1.38,0.183,2.715,0.495,4H4.463z M43.992,55.071l-0.074,0.068   C39.849,58.919,34.549,61,28.995,61H24c-8.271,0-15-6.729-15-15v-6h5.5c0.979,0,1.864-0.403,2.5-1.053   C17.636,39.597,18.521,40,19.5,40h4.945l1.259,2.015C28.047,45.763,32.095,48,36.532,48h0.163c4.295,0,8.219-2.175,10.496-5.817   l1.413-2.26C49.063,39.971,49.528,40,50,40c0.329,0,0.652-0.025,0.975-0.049C50.724,45.685,48.213,51.153,43.992,55.071z    M53.055,37.559c0.978-1.332,1.976-3.351,2.521-6.383l-1.969-0.354c-0.831,4.625-2.78,6.438-3.607,7.018   c-1.004-0.708-3.66-3.269-3.964-10.485C47.304,27.767,48.636,28,50,28c1.366,0,2.701-0.234,3.97-0.645   c-0.022,0.531-0.054,1.051-0.102,1.55l1.991,0.189c0.078-0.822,0.117-1.693,0.129-2.585c1.634-0.854,3.094-2.04,4.249-3.516   C60.739,24.27,61,25.63,61,27C61,32.005,57.637,36.231,53.055,37.559z"/></g><text x="0" y="79" fill="#000000" font-size="5px" font-weight="bold" font-family="'Helvetica Neue', Helvetica, Arial-Unicode, Arial, Sans-serif">Created by Eucalyp</text><text x="0" y="84" fill="#000000" font-size="5px" font-weight="bold" font-family="'Helvetica Neue', Helvetica, Arial-Unicode, Arial, Sans-serif">from the Noun Project</text></svg>